# 3ds Max Wavefront OBJ Exporter v0.97b - (c)2007 guruware
# File Created: 08.01.2016 13:22:13

mtllib Icecream_01.mtl

#
# object Cone002
#

v  -23.2263 60.2600 -6.2120
v  -1.6067 0.0001 -0.4190
v  -1.6641 0.0001 0.0170
v  -24.0463 60.2600 0.0170
v  -20.8220 60.2600 -12.0164
v  -1.4384 0.0001 -0.8253
v  -16.9973 60.2600 -17.0008
v  -1.1707 0.0001 -1.1743
v  -12.0129 60.2600 -20.8255
v  -0.8218 0.0001 -1.4420
v  -6.2084 60.2600 -23.2298
v  -0.4155 0.0001 -1.6103
v  0.0205 60.2600 -24.0498
v  0.0205 0.0001 -1.6677
v  6.2495 60.2600 -23.2298
v  0.4566 0.0001 -1.6103
v  12.0540 60.2600 -20.8255
v  0.8629 0.0001 -1.4420
v  17.0384 60.2600 -17.0008
v  1.2118 0.0001 -1.1743
v  20.8630 60.2600 -12.0164
v  1.4795 0.0001 -0.8253
v  23.2673 60.2600 -6.2120
v  1.6478 0.0001 -0.4190
v  24.0874 60.2600 0.0170
v  1.7052 0.0001 0.0170
v  23.2673 60.2600 6.2460
v  1.6478 0.0001 0.4530
v  20.8630 60.2600 12.0504
v  1.4795 0.0001 0.8593
v  17.0384 60.2600 17.0348
v  1.2118 0.0001 1.2082
v  12.0540 60.2600 20.8595
v  0.8629 0.0001 1.4760
v  6.2495 60.2600 23.2638
v  0.4566 0.0001 1.6443
v  0.0205 60.2600 24.0839
v  0.0205 0.0001 1.7017
v  -6.2084 60.2600 23.2638
v  -0.4155 0.0001 1.6443
v  -12.0129 60.2600 20.8595
v  -0.8218 0.0001 1.4760
v  -16.9973 60.2600 17.0348
v  -1.1707 0.0001 1.2082
v  -20.8220 60.2600 12.0504
v  -1.4384 0.0001 0.8593
v  -23.2262 60.2600 6.2460
v  -1.6067 0.0001 0.4530
v  -21.7028 61.9852 0.0170
v  -20.9626 61.9852 -5.6054
v  -18.7924 61.9852 -10.8447
v  -15.3402 61.9852 -15.3437
v  -10.8411 61.9852 -18.7960
v  -5.6019 61.9852 -20.9661
v  0.0205 61.9852 -21.7063
v  5.6430 61.9852 -20.9661
v  10.8822 61.9852 -18.7960
v  15.3813 61.9852 -15.3437
v  18.8335 61.9852 -10.8447
v  21.0037 61.9852 -5.6054
v  21.7439 61.9852 0.0170
v  21.0037 61.9852 5.6394
v  18.8335 61.9852 10.8787
v  15.3813 61.9852 15.3777
v  10.8822 61.9852 18.8300
v  5.6430 61.9852 21.0001
v  0.0205 61.9852 21.7404
v  -5.6019 61.9852 21.0001
v  -10.8411 61.9852 18.8300
v  -15.3402 61.9852 15.3777
v  -18.7924 61.9852 10.8787
v  -20.9626 61.9852 5.6394
v  -8.5542 98.2103 11.1502
v  -8.0117 97.2781 4.6105
v  -13.1529 93.9954 2.9287
v  -16.8611 95.6401 6.3542
v  -18.1462 95.6401 11.1502
v  -16.8611 95.6401 15.9462
v  -13.3502 95.6401 19.4572
v  -8.5542 95.6401 20.7423
v  -3.7581 95.6401 19.4572
v  -0.2472 95.6401 15.9462
v  4.2945 94.9948 9.8710
v  1.8523 97.8935 7.5047
v  -2.8704 99.7795 2.9287
v  -16.9166 92.3418 -1.6658
v  -22.9422 88.6183 2.8432
v  -25.1681 88.6183 11.1502
v  -22.9422 88.6183 19.4572
v  -16.8611 88.6183 25.5383
v  -8.5542 88.6183 27.7641
v  1.5096 89.1155 24.6005
v  9.2896 93.7473 14.7108
v  6.8616 93.4730 12.3582
v  -25.1681 79.0262 1.5581
v  -18.2942 91.3772 -7.9422
v  -24.6377 78.5792 -7.9422
v  -27.7383 79.0262 11.1502
v  -25.1681 79.0262 20.7423
v  -18.1462 79.0262 27.7641
v  -8.5542 79.0262 30.3343
v  -0.8740 82.5879 23.5073
v  -22.9422 69.4342 2.8432
v  -24.1319 67.2012 -7.2569
v  -25.1681 69.4342 11.1502
v  -22.9422 69.4342 19.4572
v  -16.8611 69.4342 25.5383
v  -8.5542 69.4342 27.7641
v  -1.1790 73.5627 25.5281
v  18.3964 95.6382 14.7108
v  17.7864 93.3614 5.9142
v  13.5380 94.4998 7.0927
v  10.4279 95.3331 10.3125
v  10.4279 95.3331 19.1091
v  13.5380 94.4998 22.3288
v  17.7864 93.3614 23.5073
v  22.0348 92.2231 22.3288
v  25.1449 91.3897 19.1091
v  26.2832 91.0847 14.7108
v  25.1449 91.3897 10.3125
v  20.4487 91.0431 3.7400
v  8.7612 89.1130 27.9056
v  16.1197 87.1413 29.9469
v  23.4782 85.1696 27.9056
v  28.8650 83.7262 22.3288
v  30.8367 83.1979 14.7108
v  28.8650 83.7262 7.0927
v  26.0622 82.2648 0.7002
v  5.3462 80.9212 29.9469
v  13.8430 78.6445 32.3039
v  22.3398 76.3678 29.9469
v  28.5600 74.7011 23.5074
v  30.8367 74.0910 14.7108
v  28.5600 74.7011 5.9142
v  25.8344 69.1927 -1.6658
v  4.2078 72.1193 27.9056
v  11.5663 70.1476 29.9469
v  18.9248 68.1759 27.9056
v  24.3115 66.7325 22.3288
v  26.2832 66.2042 14.7108
v  24.3116 66.7325 7.0927
v  -9.9409 101.3323 -7.9421
v  -8.0117 98.5771 -20.4948
v  -13.1529 94.9771 -18.8130
v  -16.9166 92.3418 -14.2185
v  0.8932 104.8124 -1.6658
v  2.2708 105.7770 -7.9421
v  0.8933 104.8124 -14.2184
v  -2.8704 102.1770 -18.8130
v  -11.6459 84.8145 -26.7711
v  -2.7410 91.0498 -29.6839
v  -18.1647 80.2499 -18.8130
v  5.5967 102.8592 4.2431
v  12.6858 102.0268 1.4314
v  15.0688 103.5203 -7.9421
v  12.6828 101.8496 -18.8130
v  6.1639 97.2851 -26.7711
v  -5.8236 73.5674 -29.6839
v  4.4589 80.7673 -33.0474
v  -18.9908 69.8778 -16.5687
v  22.2687 93.2378 -20.4947
v  25.0239 95.1670 -7.9421
v  14.7414 87.9672 -29.6839
v  11.6588 70.4848 -29.6839
v  29.4686 82.9553 -7.9421
v  27.0825 81.2846 -18.8130
v  20.5637 76.7201 -26.7711
v  27.2120 70.1573 -7.9421
v  25.8344 69.1927 -14.2184
v  22.0707 66.5574 -18.8130
# 170 vertices

vn -0.9304 -0.3456 -0.1225
vn -0.8670 -0.3456 -0.3591
vn -0.7445 -0.3456 -0.5713
vn -0.5713 -0.3456 -0.7445
vn -0.3591 -0.3456 -0.8670
vn -0.1225 -0.3456 -0.9304
vn 0.1225 -0.3456 -0.9304
vn 0.3591 -0.3456 -0.8670
vn 0.5713 -0.3456 -0.7445
vn 0.7445 -0.3456 -0.5713
vn 0.8670 -0.3456 -0.3591
vn 0.9304 -0.3456 -0.1225
vn 0.9304 -0.3456 0.1225
vn 0.8670 -0.3456 0.3591
vn 0.7445 -0.3456 0.5713
vn 0.5713 -0.3456 0.7445
vn 0.3591 -0.3456 0.8670
vn 0.1225 -0.3456 0.9304
vn -0.1225 -0.3456 0.9304
vn -0.3591 -0.3456 0.8670
vn -0.5713 -0.3456 0.7445
vn -0.7445 -0.3456 0.5713
vn -0.8670 -0.3456 0.3591
vn -0.9304 -0.3456 0.1225
vn -0.5910 0.8029 -0.0778
vn -0.5508 0.8029 -0.2281
vn -0.4730 0.8029 -0.3629
vn -0.3629 0.8029 -0.4730
vn -0.2281 0.8029 -0.5508
vn -0.0778 0.8029 -0.5910
vn 0.0778 0.8029 -0.5910
vn 0.2281 0.8029 -0.5508
vn 0.3629 0.8029 -0.4730
vn 0.4730 0.8029 -0.3629
vn 0.5508 0.8029 -0.2281
vn 0.5910 0.8029 -0.0778
vn 0.5910 0.8029 0.0778
vn 0.5508 0.8029 0.2281
vn 0.4730 0.8029 0.3629
vn 0.3629 0.8029 0.4730
vn 0.2281 0.8029 0.5508
vn 0.0778 0.8029 0.5910
vn -0.0778 0.8029 0.5910
vn -0.2281 0.8029 0.5508
vn -0.3629 0.8029 0.4730
vn -0.4730 0.8029 0.3629
vn -0.5508 0.8029 0.2281
vn -0.5910 0.8029 0.0778
vn -0.4926 0.8549 -0.1627
vn -0.0177 0.8937 -0.4483
vn -0.2582 0.9636 -0.0692
vn -0.2582 0.9636 0.0692
vn -0.1890 0.9636 0.1890
vn -0.0692 0.9636 0.2582
vn 0.0692 0.9636 0.2582
vn 0.1890 0.9636 0.1890
vn 0.2498 0.9646 0.0843
vn 0.2460 0.7289 0.6389
vn 0.1227 0.9558 0.2673
vn -0.4742 0.8653 -0.1627
vn -0.4510 0.8265 -0.3368
vn -0.6947 0.6947 -0.1862
vn -0.6947 0.6947 0.1862
vn -0.5086 0.6947 0.5086
vn -0.1862 0.6947 0.6947
vn 0.1846 0.6954 0.6945
vn 0.4690 0.7484 0.4690
vn -0.2999 0.9326 0.2008
vn -0.9128 0.3604 -0.1920
vn -0.9351 0.2506 -0.2506
vn -0.9351 0.2506 0.2506
vn -0.6846 0.2506 0.6846
vn -0.2506 0.2506 0.9351
vn 0.4893 0.0076 0.8721
vn -0.9910 -0.1244 0.0503
vn -0.9351 -0.2506 -0.2506
vn -0.9351 -0.2506 0.2506
vn -0.6846 -0.2506 0.6846
vn -0.2506 -0.2506 0.9351
vn 0.5280 -0.0337 0.8486
vn -0.9647 -0.2171 0.1492
vn -0.8719 -0.4896 -0.0036
vn -0.6542 -0.6985 0.2901
vn -0.4392 -0.7546 0.4875
vn -0.2133 -0.7228 0.6573
vn 0.2371 -0.4311 0.8706
vn 0.1826 0.9487 -0.2582
vn 0.0668 0.9797 -0.1890
vn -0.1947 0.9377 0.2877
vn -0.1947 0.9377 -0.2877
vn 0.0668 0.9797 0.1890
vn 0.1826 0.9487 0.2582
vn 0.3162 0.9129 0.2582
vn 0.4320 0.8819 0.1890
vn 0.4988 0.8640 0.0692
vn 0.4988 0.8640 -0.0692
vn 0.3586 0.8830 -0.3028
vn 0.5129 0.8218 -0.2483
vn -0.6167 0.7779 -0.1208
vn -0.2640 0.8104 0.5230
vn -0.0000 0.7193 0.6947
vn 0.3596 0.6229 0.6947
vn 0.6711 0.5394 0.5086
vn 0.8509 0.4913 0.1862
vn 0.8509 0.4913 -0.1862
vn 0.6781 0.5642 -0.4709
vn -0.5433 0.2653 0.7965
vn -0.1772 0.3069 0.9351
vn 0.3069 0.1772 0.9351
vn 0.7261 0.0649 0.6846
vn 0.9681 0.0000 0.2506
vn 0.9681 0.0000 -0.2506
vn 0.9223 0.0394 -0.3846
vn -0.5961 0.0473 0.8015
vn -0.3069 -0.1772 0.9351
vn 0.1772 -0.3069 0.9351
vn 0.5964 -0.4192 0.6846
vn 0.8384 -0.4840 0.2506
vn 0.8384 -0.4840 -0.2506
vn 0.8578 -0.5140 0.0048
vn -0.1889 -0.4522 0.8717
vn -0.1024 -0.7002 0.7066
vn 0.0911 -0.8584 0.5048
vn 0.1699 -0.9017 0.3975
vn 0.3648 -0.9176 0.1580
vn 0.4845 -0.8746 0.0211
vn 0.7352 -0.6055 0.3045
vn -0.6094 0.7497 -0.2582
vn -0.7075 0.6809 -0.1890
vn -0.7642 0.6412 -0.0692
vn -0.7642 0.6412 0.0692
vn -0.6528 0.7032 0.2817
vn -0.5823 0.7432 0.3295
vn -0.3212 0.8856 0.3354
vn -0.4916 0.7584 0.4280
vn -0.3412 0.9374 0.0692
vn -0.3412 0.9374 -0.0692
vn -0.3979 0.8978 -0.1890
vn -0.4960 0.8290 -0.2582
vn -0.5510 0.4623 -0.6947
vn -0.8151 0.2774 -0.5086
vn -0.8760 0.3318 -0.3501
vn -0.3557 0.7278 0.5863
vn 0.1780 0.9654 0.1907
vn 0.1706 0.9676 0.1862
vn 0.1706 0.9676 -0.1862
vn 0.0181 0.8608 -0.5086
vn -0.2460 0.6759 -0.6947
vn -0.3490 0.0615 -0.9351
vn -0.6959 -0.1390 -0.7046
vn -0.8602 -0.0556 -0.5070
vn 0.3586 0.5867 0.7261
vn 0.6223 0.7416 -0.2506
vn 0.4170 0.5979 -0.6845
vn 0.0615 0.3490 -0.9351
vn -0.0957 -0.5428 -0.8344
vn -0.5103 -0.4613 -0.7258
vn -0.8337 -0.5413 -0.1098
vn 0.8433 0.3443 0.4127
vn 0.9097 0.3311 -0.2506
vn 0.7045 0.1874 -0.6845
vn 0.3490 -0.0615 -0.9351
vn 0.3273 -0.7560 -0.5668
vn 0.9493 -0.1178 0.2914
vn 0.9676 -0.1706 -0.1862
vn 0.8151 -0.2774 -0.5086
vn 0.4232 -0.6435 -0.6378
vn 0.8548 -0.3794 -0.3541
vn 0.6904 -0.7223 0.0405
vn 0.7057 -0.7071 -0.0462
vn 0.6768 -0.7228 -0.1398
vn 0.4162 -0.8513 -0.3194
vn -0.7478 -0.4020 -0.5284
vn -0.7631 -0.5637 -0.3161
vn -0.5643 -0.3751 -0.7354
vn -0.0000 -0.5672 -0.8235
vn -0.7204 -0.4190 -0.5528
vn 0.8796 -0.4757 -0.0000
vn -0.0871 0.5892 0.8033
vn -0.3365 0.9103 0.2411
vn -0.0865 0.8076 0.5834
vn 0.4470 0.7985 0.4032
vn 0.3296 0.7118 0.6203
vn 0.6555 0.6471 0.3893
vn 0.7520 0.5923 0.2893
vn 0.6886 0.4840 0.5399
vn -0.5327 0.8462 -0.0131
# 187 vertex normals

vt 0.0197 0.2771 0.0000
vt 0.3538 0.1868 0.0000
vt 0.3538 0.1886 0.0000
vt 0.0197 0.2925 0.0000
vt 0.0197 0.2618 0.0000
vt 0.3538 0.1849 0.0000
vt 0.0197 0.2476 0.0000
vt 0.3538 0.1832 0.0000
vt 0.0197 0.2338 0.0000
vt 0.3538 0.1815 0.0000
vt 0.0197 0.2194 0.0000
vt 0.3538 0.1798 0.0000
vt 0.0197 0.2050 0.0000
vt 0.3538 0.1781 0.0000
vt 0.0197 0.1896 0.0000
vt 0.3538 0.1762 0.0000
vt 0.0197 0.1745 0.0000
vt 0.3538 0.1744 0.0000
vt 0.0197 0.1583 0.0000
vt 0.3538 0.1724 0.0000
vt 0.0197 0.1487 0.0000
vt 0.3538 0.1713 0.0000
vt 0.0197 0.1362 0.0000
vt 0.3538 0.1698 0.0000
vt 0.0197 0.1218 0.0000
vt 0.3538 0.1680 0.0000
vt 0.0197 0.1065 0.0000
vt 0.3538 0.1662 0.0000
vt 0.0197 0.0912 0.0000
vt 0.3538 0.1643 0.0000
vt 0.0197 0.0770 0.0000
vt 0.3538 0.1626 0.0000
vt 0.0197 0.0649 0.0000
vt 0.3538 0.1611 0.0000
vt 0.0197 0.0494 0.0000
vt 0.3538 0.1593 0.0000
vt 0.0197 0.0315 0.0000
vt 0.3538 0.1571 0.0000
vt 0.0197 0.0161 0.0000
vt 0.3538 0.1552 0.0000
vt 0.0197 0.0011 0.0000
vt 0.3538 0.1534 0.0000
vt 0.0197 0.3290 0.0000
vt 0.3538 0.1930 0.0000
vt 0.3538 0.1948 0.0000
vt 0.0197 0.3471 0.0000
vt 0.0197 0.3193 0.0000
vt 0.3538 0.1919 0.0000
vt 0.0197 0.3069 0.0000
vt 0.3538 0.1904 0.0000
vt 0.5455 0.2831 -0.2500
vt 0.5114 0.2823 -0.2500
vt 0.5196 0.2667 -0.2500
vt 0.5422 0.2661 -0.2500
vt 0.6774 0.0931 0.0000
vt 0.6628 0.0533 -0.2500
vt 0.6819 0.0496 -0.2500
vt 0.6897 0.0877 0.0000
vt 0.6958 0.1239 0.0000
vt 0.7063 0.1156 0.0000
vt 0.7216 0.1490 0.0000
vt 0.7296 0.1382 0.0000
vt 0.7530 0.1665 0.0000
vt 0.7580 0.1540 0.0000
vt 0.7879 0.1753 0.0000
vt 0.7895 0.1619 0.0000
vt 0.8239 0.1747 0.0000
vt 0.8219 0.1614 0.0000
vt 0.8585 0.1649 0.0000
vt 0.8531 0.1526 0.0000
vt 0.8893 0.1464 0.0000
vt 0.8810 0.1359 0.0000
vt 0.9144 0.1206 0.0000
vt 0.9036 0.1126 0.0000
vt 0.9319 0.0892 0.0000
vt 0.9194 0.0843 0.0000
vt 0.9407 0.0543 0.0000
vt 0.9273 0.0528 0.0000
vt 0.5143 0.0355 0.0000
vt 0.5464 0.0350 0.0000
vt 0.5450 0.0469 0.0000
vt 0.5160 0.0473 0.0000
vt 0.4834 0.0443 0.0000
vt 0.4881 0.0553 0.0000
vt 0.4558 0.0607 0.0000
vt 0.4633 0.0701 0.0000
vt 0.4335 0.0838 0.0000
vt 0.4431 0.0909 0.0000
vt 0.4178 0.1118 0.0000
vt 0.4290 0.1162 0.0000
vt 0.4100 0.1430 0.0000
vt 0.4219 0.1443 0.0000
vt 0.4105 0.1751 0.0000
vt 0.4223 0.1733 0.0000
vt 0.4193 0.2060 0.0000
vt 0.4302 0.2012 0.0000
vt 0.4357 0.2335 0.0000
vt 0.4451 0.2261 0.0000
vt 0.4588 0.2559 0.0000
vt 0.4659 0.2463 0.0000
vt 0.4868 0.2715 0.0000
vt 0.4912 0.2604 0.0000
vt 0.6087 0.4041 0.0000
vt 0.6463 0.4644 0.0000
vt 0.5969 0.5039 0.0000
vt 0.5452 0.4932 0.0000
vt 0.0218 0.8350 0.0000
vt 0.0491 0.7545 0.0000
vt 0.0627 0.7745 0.0000
vt 0.0709 0.8108 0.0000
vt 0.0715 0.8535 0.0000
vt 0.0642 0.8913 0.0000
vt 0.0512 0.9140 0.0000
vt 0.6081 0.2908 0.0000
vt 0.6616 0.3062 0.0000
vt 0.7375 0.3403 0.0000
vt 0.7314 0.3823 0.0000
vt 0.7118 0.4570 0.0000
vt 0.5797 0.5674 0.0000
vt 0.4881 0.5495 0.0000
vt 0.1340 0.7303 0.0000
vt 0.1104 0.6955 0.0000
vt 0.1482 0.7931 0.0000
vt 0.1491 0.8671 0.0000
vt 0.1366 0.9325 0.0000
vt 0.1041 0.9774 0.0000
vt 0.6206 0.1994 0.0000
vt 0.7598 0.2625 0.0000
vt 0.7471 0.2988 0.0000
vt 0.3671 0.6484 0.0000
vt 0.3096 0.6821 0.0000
vt 0.2594 0.6298 0.0000
vt 0.3365 0.5896 0.0000
vt 0.2165 0.7141 0.0000
vt 0.1893 0.6740 0.0000
vt 0.2329 0.7866 0.0000
vt 0.2340 0.8721 0.0000
vt 0.2195 0.9476 0.0000
vt 0.1591 0.9559 0.0000
vt 0.4127 0.6099 0.0000
vt 0.4119 0.5624 0.0000
vt 0.2881 0.7303 0.0000
vt 0.2646 0.6955 0.0000
vt 0.3023 0.7931 0.0000
vt 0.3033 0.8671 0.0000
vt 0.2907 0.9325 0.0000
vt 0.2369 0.9659 0.0000
vt 0.4503 0.5868 0.0000
vt 0.4435 0.5653 0.0000
vt 0.3339 0.7689 0.0000
vt 0.3266 0.7244 0.0000
vt 0.3368 0.8170 0.0000
vt 0.3351 0.8657 0.0000
vt 0.3289 0.9114 0.0000
vt 0.3187 0.9512 0.0000
vt 0.8549 0.2155 0.0000
vt 0.8901 0.3022 0.0000
vt 0.8437 0.3160 0.0000
vt 0.7974 0.3026 0.0000
vt 0.7515 0.2153 0.0000
vt 0.3833 0.8736 0.0000
vt 0.4366 0.7538 0.0000
vt 0.4360 0.7728 0.0000
vt 0.4378 0.7977 0.0000
vt 0.4362 0.8718 0.0000
vt 0.4416 0.8926 0.0000
vt 0.4436 0.9211 0.0000
vt 0.4416 0.9495 0.0000
vt 0.7339 0.9568 0.0000
vt 0.7365 0.9151 0.0000
vt 0.7859 0.8919 0.0000
vt 0.7841 0.9140 0.0000
vt 0.4712 0.7520 0.0000
vt 0.4348 0.7545 0.0000
vt 0.4791 0.7116 0.0000
vt 0.4742 0.7951 0.0000
vt 0.4818 0.8358 0.0000
vt 0.4912 0.8718 0.0000
vt 0.4946 0.9211 0.0000
vt 0.4912 0.9703 0.0000
vt 0.7680 0.8246 0.0000
vt 0.7267 0.8546 0.0000
vt 0.5205 0.7419 0.0000
vt 0.5193 0.6970 0.0000
vt 0.5240 0.7917 0.0000
vt 0.5387 0.8226 0.0000
vt 0.5495 0.8642 0.0000
vt 0.5534 0.9211 0.0000
vt 0.5495 0.9779 0.0000
vt 0.7434 0.7311 0.0000
vt 0.7070 0.7914 0.0000
vt 0.5708 0.7451 0.0000
vt 0.5686 0.7135 0.0000
vt 0.5738 0.7882 0.0000
vt 0.5917 0.8358 0.0000
vt 0.6010 0.8718 0.0000
vt 0.6044 0.9211 0.0000
vt 0.6010 0.9703 0.0000
vt 0.7552 0.6710 0.0000
vt 0.6829 0.7426 0.0000
vt 0.6257 0.7641 0.0000
vt 0.6318 0.7327 0.0000
vt 0.6200 0.7933 0.0000
vt 0.6208 0.8183 0.0000
vt 0.6312 0.9003 0.0000
vt 0.6414 0.9332 0.0000
vt 0.1754 0.6376 0.0000
vt 0.1618 0.5666 0.0000
vt 0.2028 0.5785 0.0000
vt 0.2385 0.6017 0.0000
vt 0.2599 0.6554 0.0000
vt 0.7009 0.6066 0.0000
vt 0.7839 0.4926 0.0000
vt 0.8324 0.5489 0.0000
vt 0.8494 0.6151 0.0000
vt 0.1064 0.5854 0.0000
vt 0.1265 0.5691 0.0000
vt 0.2384 0.5008 0.0000
vt 0.1674 0.4802 0.0000
vt 0.3003 0.5409 0.0000
vt 0.7961 0.4046 0.0000
vt 0.8802 0.3919 0.0000
vt 0.9561 0.4744 0.0000
vt 0.9855 0.5904 0.0000
vt 0.1063 0.4845 0.0000
vt 0.0715 0.5127 0.0000
vt 0.2727 0.4253 0.0000
vt 0.1907 0.4015 0.0000
vt 0.3629 0.5143 0.0000
vt 0.9437 0.8297 0.0000
vt 0.9770 0.8914 0.0000
vt 0.9085 0.9369 0.0000
vt 0.8646 0.8822 0.0000
vt 0.1201 0.4065 0.0000
vt 0.0799 0.4390 0.0000
vt 0.3079 0.3783 0.0000
vt 0.2254 0.3516 0.0000
vt 0.3490 0.4182 0.0000
vt 0.3718 0.4461 0.0000
vt 0.4312 0.5386 0.0000
vt 0.8190 0.8019 0.0000
vt 0.8874 0.7564 0.0000
vt 0.9361 0.7010 0.0000
vt 0.9998 0.7657 0.0000
vt 0.1643 0.3559 0.0000
vt 0.3179 0.3547 0.0000
vt 0.2983 0.3205 0.0000
vt 0.7838 0.7176 0.0000
vt 0.8234 0.6913 0.0000
vt 0.8514 0.6594 0.0000
vt 0.2270 0.3464 0.0000
vt 0.7926 0.6544 0.0000
vt 0.2661 0.3037 0.0000
vt 0.4144 0.5084 0.0000
vt 0.3941 0.4769 0.0000
vt 0.3272 0.3951 0.0000
vt 0.6836 0.7066 0.0000
vt 0.7181 0.6889 0.0000
vt 0.8486 0.9567 0.0000
# 259 texture coords

g Cone002
usemtl 02___Default
s off
f 1/1/1 2/2/1 3/3/1 4/4/1 
f 5/5/2 6/6/2 2/2/2 1/1/2 
f 7/7/3 8/8/3 6/6/3 5/5/3 
f 9/9/4 10/10/4 8/8/4 7/7/4 
f 11/11/5 12/12/5 10/10/5 9/9/5 
f 13/13/6 14/14/6 12/12/6 11/11/6 
f 15/15/7 16/16/7 14/14/7 13/13/7 
f 17/17/8 18/18/8 16/16/8 15/15/8 
f 19/19/9 20/20/9 18/18/9 17/17/9 
f 21/21/10 22/22/10 20/20/10 19/19/10 
f 23/23/11 24/24/11 22/22/11 21/21/11 
f 25/25/12 26/26/12 24/24/12 23/23/12 
f 27/27/13 28/28/13 26/26/13 25/25/13 
f 29/29/14 30/30/14 28/28/14 27/27/14 
f 31/31/15 32/32/15 30/30/15 29/29/15 
f 33/33/16 34/34/16 32/32/16 31/31/16 
f 35/35/17 36/36/17 34/34/17 33/33/17 
f 37/37/18 38/38/18 36/36/18 35/35/18 
f 39/39/19 40/40/19 38/38/19 37/37/19 
f 41/41/20 42/42/20 40/40/20 39/39/20 
f 43/43/21 44/44/21 42/45/21 41/46/21 
f 45/47/22 46/48/22 44/44/22 43/43/22 
f 47/49/23 48/50/23 46/48/23 45/47/23 
f 4/4/24 3/3/24 48/50/24 47/49/24 
f 1/51/25 4/52/25 49/53/25 50/54/25 
f 5/55/26 1/56/26 50/57/26 51/58/26 
f 7/59/27 5/55/27 51/58/27 52/60/27 
f 9/61/28 7/59/28 52/60/28 53/62/28 
f 11/63/29 9/61/29 53/62/29 54/64/29 
f 13/65/30 11/63/30 54/64/30 55/66/30 
f 15/67/31 13/65/31 55/66/31 56/68/31 
f 17/69/32 15/67/32 56/68/32 57/70/32 
f 19/71/33 17/69/33 57/70/33 58/72/33 
f 21/73/34 19/71/34 58/72/34 59/74/34 
f 23/75/35 21/73/35 59/74/35 60/76/35 
f 25/77/36 23/75/36 60/76/36 61/78/36 
f 27/79/37 25/80/37 61/81/37 62/82/37 
f 29/83/38 27/79/38 62/82/38 63/84/38 
f 31/85/39 29/83/39 63/84/39 64/86/39 
f 33/87/40 31/85/40 64/86/40 65/88/40 
f 35/89/41 33/87/41 65/88/41 66/90/41 
f 37/91/42 35/89/42 66/90/42 67/92/42 
f 39/93/43 37/91/43 67/92/43 68/94/43 
f 41/95/44 39/93/44 68/94/44 69/96/44 
f 43/97/45 41/95/45 69/96/45 70/98/45 
f 45/99/46 43/97/46 70/98/46 71/100/46 
f 47/101/47 45/99/47 71/100/47 72/102/47 
f 4/52/48 47/101/48 72/102/48 49/53/48 
f 73/103/49 74/104/49 75/105/49 
f 73/103/50 75/105/50 76/106/50 
f 73/107/51 76/108/51 77/109/51 
f 73/107/52 77/109/52 78/110/52 
f 73/107/53 78/110/53 79/111/53 
f 73/107/54 79/111/54 80/112/54 
f 73/107/55 80/112/55 81/113/55 
f 73/103/56 81/114/56 82/115/56 
f 73/103/57 82/115/57 83/116/57 
f 73/103/58 83/116/58 84/117/58 
f 73/103/59 84/117/59 85/118/59 
f 73/103/60 85/118/60 74/104/60 
f 75/105/61 86/119/61 87/120/61 76/106/61 
f 88/121/62 77/109/62 76/108/62 87/122/62 
f 89/123/63 78/110/63 77/109/63 88/121/63 
f 90/124/64 79/111/64 78/110/64 89/123/64 
f 91/125/65 80/112/65 79/111/65 90/124/65 
f 92/126/66 81/113/66 80/112/66 91/125/66 
f 81/114/67 92/127/67 82/115/67 
f 92/127/68 93/128/68 94/129/68 
f 95/130/69 87/131/69 96/132/69 97/133/69 
f 98/134/70 88/121/70 87/122/70 95/135/70 
f 99/136/71 89/123/71 88/121/71 98/134/71 
f 100/137/72 90/124/72 89/123/72 99/136/72 
f 101/138/73 91/125/73 90/124/73 100/137/73 
f 102/139/74 92/126/74 91/125/74 101/138/74 
f 103/140/75 95/130/75 97/133/75 104/141/75 
f 105/142/76 98/134/76 95/135/76 103/143/76 
f 106/144/77 99/136/77 98/134/77 105/142/77 
f 107/145/78 100/137/78 99/136/78 106/144/78 
f 108/146/79 101/138/79 100/137/79 107/145/79 
f 109/147/80 102/139/80 101/138/80 108/146/80 
f 72/148/81 103/140/81 104/141/81 49/149/81 
f 71/150/82 105/142/82 103/143/82 72/151/82 
f 70/152/83 106/144/83 105/142/83 71/150/83 
f 69/153/84 107/145/84 106/144/84 70/152/84 
f 68/154/85 108/146/85 107/145/85 69/153/85 
f 67/155/86 109/147/86 108/146/86 68/154/86 
f 110/156/87 111/157/87 112/158/87 
f 110/156/88 112/158/88 113/159/88 
f 110/156/89 113/159/89 93/128/89 
f 110/156/90 93/128/90 114/160/90 
f 110/161/91 114/162/91 115/163/91 
f 110/161/92 115/163/92 116/164/92 
f 110/161/93 116/164/93 117/165/93 
f 110/161/94 117/165/94 118/166/94 
f 110/161/95 118/166/95 119/167/95 
f 110/161/96 119/167/96 120/168/96 
f 110/169/97 120/170/97 121/171/97 
f 110/169/98 121/171/98 111/172/98 
f 93/128/99 92/127/99 114/160/99 
f 122/173/100 115/163/100 114/174/100 92/175/100 
f 123/176/101 116/164/101 115/163/101 122/173/101 
f 124/177/102 117/165/102 116/164/102 123/176/102 
f 125/178/103 118/166/103 117/165/103 124/177/103 
f 126/179/104 119/167/104 118/166/104 125/178/104 
f 127/180/105 120/168/105 119/167/105 126/179/105 
f 128/181/106 121/171/106 120/170/106 127/182/106 
f 129/183/107 122/173/107 92/175/107 102/184/107 
f 130/185/108 123/176/108 122/173/108 129/183/108 
f 131/186/109 124/177/109 123/176/109 130/185/109 
f 132/187/110 125/178/110 124/177/110 131/186/110 
f 133/188/111 126/179/111 125/178/111 132/187/111 
f 134/189/112 127/180/112 126/179/112 133/188/112 
f 135/190/113 128/181/113 127/182/113 134/191/113 
f 136/192/114 129/183/114 102/184/114 109/193/114 
f 137/194/115 130/185/115 129/183/115 136/192/115 
f 138/195/116 131/186/116 130/185/116 137/194/116 
f 139/196/117 132/187/117 131/186/117 138/195/117 
f 140/197/118 133/188/118 132/187/118 139/196/118 
f 141/198/119 134/189/119 133/188/119 140/197/119 
f 60/199/120 135/190/120 134/191/120 141/200/120 
f 66/201/121 136/192/121 109/193/121 67/202/121 
f 65/203/122 137/194/122 136/192/122 66/201/122 
f 64/204/123 138/195/123 137/194/123 65/203/123 
f 138/195/124 64/204/124 139/196/124 
f 139/196/125 64/204/125 140/197/125 
f 63/205/126 141/198/126 140/197/126 64/204/126 
f 141/198/127 63/205/127 62/206/127 
f 142/207/128 143/208/128 144/209/128 
f 142/207/129 144/209/129 145/210/129 
f 142/207/130 145/210/130 96/132/130 
f 142/207/131 96/132/131 86/211/131 
f 142/212/132 86/119/132 75/105/132 
f 142/212/133 75/105/133 74/104/133 
f 142/212/134 74/104/134 85/118/134 
f 142/212/135 85/118/135 146/213/135 
f 142/212/136 146/213/136 147/214/136 
f 142/212/137 147/214/137 148/215/137 
f 142/207/138 148/216/138 149/217/138 
f 142/207/139 149/217/139 143/208/139 
f 150/218/140 144/209/140 143/208/140 151/219/140 
f 152/220/141 145/210/141 144/209/141 150/218/141 
f 97/133/142 96/132/142 145/210/142 152/220/142 
f 85/118/143 84/117/143 153/221/143 146/213/143 
f 153/221/144 154/222/144 155/223/144 146/213/144 
f 146/213/145 155/223/145 147/214/145 
f 156/224/146 148/215/146 147/214/146 155/223/146 
f 157/225/147 149/217/147 148/216/147 156/226/147 
f 151/219/148 143/208/148 149/217/148 157/225/148 
f 158/227/149 150/218/149 151/219/149 159/228/149 
f 160/229/150 152/220/150 150/218/150 158/227/150 
f 104/141/151 97/133/151 152/220/151 160/229/151 
f 112/158/152 111/157/152 154/222/152 
f 161/230/153 156/231/153 155/232/153 162/233/153 
f 163/234/154 157/225/154 156/226/154 161/235/154 
f 159/228/155 151/219/155 157/225/155 163/234/155 
f 56/236/156 158/227/156 159/228/156 164/237/156 
f 158/227/157 54/238/157 53/239/157 160/229/157 
f 50/240/158 49/149/158 104/141/158 
f 165/241/159 162/233/159 121/171/159 128/181/159 
f 166/242/160 161/230/160 162/233/160 165/241/160 
f 167/243/161 163/244/161 161/230/161 166/242/161 
f 164/237/162 159/228/162 163/234/162 167/245/162 
f 57/246/163 56/236/163 164/237/163 58/247/163 
f 168/248/164 165/241/164 128/181/164 135/190/164 
f 169/249/165 166/242/165 165/241/165 168/248/165 
f 170/250/166 167/243/166 166/242/166 169/249/166 
f 58/247/167 164/237/167 167/245/167 170/251/167 
f 59/252/168 135/190/168 60/199/168 
f 59/252/169 168/248/169 135/190/169 
f 59/252/170 169/249/170 168/248/170 
f 59/252/171 170/250/171 169/249/171 
f 59/253/172 58/247/172 170/251/172 
f 104/141/173 160/229/173 160/229/173 51/254/173 
f 104/141/174 51/254/174 50/240/174 
f 52/255/175 160/229/175 160/229/175 53/239/175 
f 158/227/176 56/236/176 55/256/176 54/238/176 
f 52/255/177 51/254/177 160/229/177 
f 141/200/178 62/257/178 61/258/178 60/199/178 
f 83/116/179 113/159/179 153/221/179 84/117/179 
f 94/129/180 93/128/180 113/159/180 
f 113/159/181 83/116/181 94/129/181 
f 94/129/182 83/116/182 82/115/182 92/127/182 
f 153/221/183 113/159/183 154/222/183 
f 162/233/184 155/232/184 154/259/184 121/171/184 
f 111/172/185 121/171/185 154/259/185 
f 154/222/186 113/159/186 112/158/186 
f 86/211/187 96/132/187 87/131/187 
# 129 polygons - 58 triangles

