# 3ds Max Wavefront OBJ Exporter v0.97b - (c)2007 guruware
# File Created: 08.01.2016 12:12:56

mtllib Tree_01.mtl

#
# object Cylinder001
#

v  2.6464 16.4661 -4.7987
v  3.3394 16.1965 -3.6029
v  0.2664 8.0983 -4.9837
v  -0.6910 8.2330 -6.6120
v  1.3543 17.0051 -4.8384
v  -2.4175 8.5026 -6.6777
v  -3.1841 8.6373 -5.1152
v  0.7511 17.2746 -3.6817
v  -2.2601 8.5026 -3.5200
v  1.4177 17.0051 -2.5181
v  -0.5360 8.2330 -3.4544
v  2.7141 16.4661 -2.4785
v  3.0873 18.7301 -3.8845
v  3.7138 18.4235 -2.7903
v  0.9621 -0.2828 -4.5114
v  -3.9649 -0.2819 -9.3497
v  2.1724 19.4335 -4.1596
v  -6.7809 -0.2819 -6.6116
v  -5.9198 -0.2819 -4.2146
v  1.9147 19.3433 -1.7774
v  1.3145 19.6499 -2.8414
v  -7.6490 -0.2829 -1.1277
v  -2.9557 -0.2819 -0.8054
v  3.1176 18.7301 -1.7516
v  4.2499 24.6991 -1.4742
v  4.7007 24.2948 -0.6482
v  3.3050 25.5077 -1.4635
v  2.7998 25.9120 -0.6262
v  3.2249 25.5077 0.1754
v  4.1813 24.6991 0.1647
v  -1.7113 20.3067 -5.4424
v  -1.3450 21.3612 -4.8086
v  -1.7385 21.1375 -4.0788
v  -2.1232 20.4283 -4.6526
v  -3.3357 22.2463 -7.0762
v  -3.0475 23.0761 -6.5775
v  -3.6165 22.9018 -6.1533
v  -3.6598 22.3420 -6.4547
v  -5.4553 23.8313 -9.1161
v  -5.2051 24.0274 -8.6833
v  -5.4738 24.1218 -8.1849
v  -5.7365 23.3903 -8.5768
v  -1.1065 19.5905 3.0646
v  -0.5559 20.5672 3.4120
v  -0.1036 20.1240 3.4241
v  -0.6019 19.1673 3.0832
v  -3.5876 21.2352 6.0451
v  -3.0985 22.1028 6.3538
v  -2.6968 21.7090 6.3645
v  -3.1394 20.8592 6.0616
v  -13.2006 22.6576 -2.2733
v  -9.6334 17.6787 -10.1299
v  -3.6060 20.1446 -13.0713
v  -4.8040 24.9367 -3.2424
v  -12.4671 26.7468 -1.3975
v  -16.4255 24.7006 -7.8794
v  -12.1418 23.9065 -15.3438
v  -4.4533 22.4901 -18.0397
v  -1.0444 28.2778 -14.1985
v  -7.0714 31.1906 -6.9315
v  -13.7810 28.9656 -8.1506
v  -6.8741 29.6450 -12.5513
v  6.2923 44.1081 6.8877
v  12.5680 42.6769 8.1551
v  4.6752 43.1757 -1.3222
v  16.4255 31.0080 3.8418
v  15.5855 37.2247 -8.0622
v  3.3707 39.0442 -8.1745
v  -5.2448 41.5924 5.1423
v  -2.2273 38.1838 -4.9962
v  -8.7656 34.8847 2.1965
v  6.6726 38.0557 18.0397
v  -4.3195 31.6499 13.6482
v  6.3010 29.1865 17.8795
v  13.4933 29.7438 10.1016
v  6.8535 21.3811 -5.3372
v  4.5119 27.9411 -12.0455
v  14.9952 26.3760 0.0844
v  -2.8176 25.7191 -3.9924
v  7.5484 22.8210 7.3164
v  -8.2652 19.9672 13.1741
v  -7.1721 26.3473 13.0097
v  -9.7880 17.3909 6.1160
v  -5.0083 28.3877 9.8282
v  -7.1489 24.3068 2.0875
v  -7.1488 20.5640 1.0406
v  -3.2582 16.9426 14.0661
v  -0.8556 20.0936 4.9494
v  1.9338 22.8053 13.9436
v  0.2712 26.0177 12.9077
# 90 vertices

vn 0.8272 -0.2239 -0.5154
vn 0.0822 0.1791 -0.9804
vn -0.7760 0.4360 -0.4558
vn -0.8108 0.2877 0.5097
vn -0.0595 -0.0928 0.9939
vn 0.7910 -0.3759 0.4828
vn 0.8695 0.0317 -0.4930
vn 0.7392 -0.0225 -0.6731
vn 0.2701 0.2438 -0.9315
vn -0.4637 0.3316 -0.8216
vn -0.9279 0.3726 0.0095
vn -0.8659 0.0273 0.4995
vn -0.9092 0.3903 -0.1450
vn -0.0452 0.2982 0.9534
vn 0.7870 -0.3176 0.5290
vn 0.7425 0.0477 0.6682
vn 0.8759 0.0262 -0.4817
vn 0.3703 0.3019 -0.8785
vn -0.7277 0.3814 -0.5700
vn -0.8708 0.0314 0.4906
vn -0.1819 -0.2663 0.9466
vn 0.7485 -0.3273 0.5767
vn 0.3507 0.2235 -0.9094
vn -0.4940 -0.2323 0.8379
vn -0.6901 -0.6890 -0.2214
vn 0.3917 0.8875 0.2425
vn 0.7680 0.1121 -0.6305
vn -0.8023 -0.1310 0.5824
vn -0.6457 -0.7298 -0.2244
vn 0.2615 0.8241 0.5024
vn 0.7399 0.1960 -0.6435
vn -0.7587 -0.1593 0.6316
vn -0.1986 -0.9063 -0.3732
vn 0.2182 0.9352 0.2791
vn -0.7660 0.4058 -0.4986
vn 0.7115 -0.3925 0.5829
vn -0.4689 -0.8675 0.1658
vn 0.5349 0.8410 0.0813
vn -0.4898 0.5240 -0.6968
vn 0.4915 -0.5081 0.7073
vn -0.6365 -0.7636 -0.1085
vn 0.6794 0.6993 0.2222
vn 0.5364 -0.5812 0.6119
vn 0.2820 -0.8484 0.4480
vn 0.1744 -0.2360 0.9560
vn -0.8588 0.0448 0.5103
vn -0.6895 -0.7111 0.1375
vn -0.3510 -0.6802 -0.6436
vn 0.8952 -0.3243 -0.3058
vn 0.7494 0.5163 0.4146
vn -0.3517 0.8669 0.3533
vn -0.7581 0.4394 -0.4818
vn 0.1460 -0.8848 -0.4426
vn 0.9347 -0.2610 0.2412
vn 0.3168 0.5645 0.7622
vn -0.7949 0.5134 0.3233
vn -0.7263 -0.5891 -0.3542
vn -0.0897 0.5869 -0.8047
vn 0.1512 0.9545 -0.2572
vn -0.2599 0.9287 -0.2645
vn -0.4381 0.6853 -0.5818
vn -0.1806 0.5594 -0.8090
vn 0.2497 0.9554 -0.1577
vn 0.9549 0.2855 0.0817
vn 0.3461 0.9069 -0.2405
vn 0.1297 0.8380 -0.5300
vn -0.2022 0.9768 -0.0711
vn -0.3694 0.8252 -0.4272
vn -0.3905 0.8312 -0.3957
vn -0.7253 0.5579 -0.4034
vn -0.2553 0.8461 0.4679
vn -0.8680 0.2737 0.4143
vn -0.5583 0.5087 0.6554
vn -0.3704 -0.0013 0.9289
vn 0.1044 0.8756 0.4716
vn 0.7351 -0.0430 0.6766
vn 0.8195 0.1422 0.5552
vn 0.8875 0.1300 0.4420
vn 0.6657 -0.4040 -0.6274
vn 0.0584 0.3340 -0.9408
vn 0.6278 -0.4890 -0.6057
vn 0.9723 -0.1718 -0.1583
vn -0.4019 -0.7209 -0.5647
vn -0.7353 -0.0197 -0.6775
vn -0.7367 -0.0195 -0.6759
vn -0.5070 0.2369 -0.8288
vn -0.3915 -0.9116 0.1252
vn -0.3675 -0.8151 0.4478
vn -0.4943 -0.8358 0.2389
vn -0.7869 -0.6021 0.1354
vn 0.4861 -0.8709 0.0724
vn 0.8242 -0.4878 0.2876
vn 0.6473 -0.6879 0.3283
vn 0.5648 -0.6756 0.4738
vn -0.9742 0.1707 0.1479
vn -0.7683 0.6289 -0.1191
vn -0.9440 0.3238 -0.0625
vn -0.9086 0.1125 -0.4022
vn -0.5261 -0.7560 0.3895
vn 0.2072 -0.8743 -0.4389
vn 0.2489 -0.9338 -0.2571
vn 0.7479 -0.6630 -0.0321
vn -0.1456 0.0504 0.9881
vn -0.2058 0.2023 0.9575
vn 0.0189 0.1194 0.9927
vn 0.0443 0.8270 0.5605
vn 0.5802 0.6433 -0.4996
vn 0.8686 0.3306 -0.3691
vn 0.6256 0.5807 -0.5209
vn 0.5259 0.2291 -0.8191
# 110 vertex normals

vt 0.8431 0.1138 0.0000
vt 0.8408 0.1215 0.0000
vt 0.7506 0.0950 0.0000
vt 0.7513 0.0845 0.0000
vt 0.8479 0.0993 0.0000
vt 0.7527 0.0656 0.0000
vt 0.5208 0.4042 0.0000
vt 0.6131 0.3816 0.0000
vt 0.6111 0.3943 0.0000
vt 0.5207 0.4213 0.0000
vt 0.3890 0.5766 0.0000
vt 0.2885 0.5752 0.0000
vt 0.2888 0.5674 0.0000
vt 0.3918 0.5669 0.0000
vt 0.3840 0.5949 0.0000
vt 0.2881 0.5905 0.0000
vt 0.7412 0.1799 0.0000
vt 0.7485 0.1901 0.0000
vt 0.6616 0.2137 0.0000
vt 0.6541 0.1988 0.0000
vt 0.7656 0.1668 0.0000
vt 0.7669 0.1791 0.0000
vt 0.7391 0.1668 0.0000
vt 0.6605 0.1095 0.0000
vt 0.6564 0.0561 0.0000
vt 0.8748 0.1062 0.0000
vt 0.8680 0.1167 0.0000
vt 0.6541 0.0257 0.0000
vt 0.4256 0.4278 0.0000
vt 0.4236 0.4019 0.0000
vt 0.6092 0.3692 0.0000
vt 0.6339 0.3592 0.0000
vt 0.6381 0.3705 0.0000
vt 0.4210 0.3685 0.0000
vt 0.5180 0.3871 0.0000
vt 0.4999 0.5623 0.0000
vt 0.4791 0.6088 0.0000
vt 0.7742 0.1883 0.0000
vt 0.4617 0.6476 0.0000
vt 0.3818 0.6034 0.0000
vt 0.8354 0.1669 0.0000
vt 0.8347 0.1768 0.0000
vt 0.9415 0.1134 0.0000
vt 0.9335 0.1243 0.0000
vt 0.8765 0.0967 0.0000
vt 0.9454 0.1076 0.0000
vt 0.6990 0.3330 0.0000
vt 0.7040 0.3413 0.0000
vt 0.9534 0.1678 0.0000
vt 0.9600 0.1797 0.0000
vt 0.8916 0.1809 0.0000
vt 0.8876 0.1668 0.0000
vt 0.8420 0.1834 0.0000
vt 0.8810 0.0634 0.0000
vt 0.8928 0.0665 0.0000
vt 0.6063 0.4720 0.0000
vt 0.5920 0.4942 0.0000
vt 0.5574 0.4815 0.0000
vt 0.5600 0.4732 0.0000
vt 0.6480 0.3895 0.0000
vt 0.6474 0.3981 0.0000
vt 0.4210 0.4890 0.0000
vt 0.4210 0.4720 0.0000
vt 0.4569 0.4868 0.0000
vt 0.4561 0.4958 0.0000
vt 0.9007 0.0442 0.0000
vt 0.9099 0.0467 0.0000
vt 0.6552 0.3827 0.0000
vt 0.6760 0.4036 0.0000
vt 0.6702 0.4074 0.0000
vt 0.6697 0.4142 0.0000
vt 0.4828 0.4808 0.0000
vt 0.4855 0.4880 0.0000
vt 0.9161 0.0200 0.0000
vt 0.9184 0.0225 0.0000
vt 0.6909 0.4246 0.0000
vt 0.6833 0.4295 0.0000
vt 0.9779 0.3021 0.0000
vt 0.9800 0.3094 0.0000
vt 0.9478 0.3084 0.0000
vt 0.9459 0.3021 0.0000
vt 0.5149 0.4743 0.0000
vt 0.5144 0.4804 0.0000
vt 0.6325 0.3067 0.0000
vt 0.6428 0.3021 0.0000
vt 0.8092 0.2347 0.0000
vt 0.7982 0.2352 0.0000
vt 0.8126 0.4810 0.0000
vt 0.8194 0.4934 0.0000
vt 0.7491 0.4932 0.0000
vt 0.7465 0.4884 0.0000
vt 0.7803 0.1855 0.0000
vt 0.8136 0.2328 0.0000
vt 0.8941 0.4813 0.0000
vt 0.8944 0.4934 0.0000
vt 0.8621 0.4918 0.0000
vt 0.8619 0.4810 0.0000
vt 0.8845 0.2073 0.0000
vt 0.8958 0.2040 0.0000
vt 0.9073 0.2349 0.0000
vt 0.8973 0.2378 0.0000
vt 0.8919 0.9612 0.0000
vt 0.8941 0.9653 0.0000
vt 0.8569 0.9660 0.0000
vt 0.8550 0.9624 0.0000
vt 0.8410 0.2562 0.0000
vt 0.8371 0.2579 0.0000
vt 0.4659 0.7991 0.0000
vt 0.3780 0.7670 0.0000
vt 0.3411 0.7042 0.0000
vt 0.4485 0.7090 0.0000
vt 0.9266 0.7456 0.0000
vt 0.8323 0.7423 0.0000
vt 0.9088 0.7042 0.0000
vt 0.9557 0.7161 0.0000
vt 0.6815 0.7969 0.0000
vt 0.7186 0.7438 0.0000
vt 0.7824 0.7921 0.0000
vt 0.3236 0.7985 0.0000
vt 0.2881 0.7175 0.0000
vt 0.4067 0.8416 0.0000
vt 0.4454 0.8869 0.0000
vt 0.3817 0.9271 0.0000
vt 0.2881 0.8453 0.0000
vt 0.2968 0.9236 0.0000
vt 0.0200 0.8687 0.0000
vt 0.1007 0.8460 0.0000
vt 0.0775 0.9163 0.0000
vt 0.6944 0.7042 0.0000
vt 0.7898 0.7043 0.0000
vt 0.0774 0.8053 0.0000
vt 0.0612 0.9401 0.0000
vt 0.1553 0.8733 0.0000
vt 0.2013 0.8263 0.0000
vt 0.2202 0.8787 0.0000
vt 0.1546 0.9380 0.0000
vt 0.1380 0.0895 0.0000
vt 0.1375 0.0200 0.0000
vt 0.2221 0.1237 0.0000
vt 0.2804 0.3060 0.0000
vt 0.1935 0.4093 0.0000
vt 0.0948 0.3021 0.0000
vt 0.3165 0.0215 0.0000
vt 0.2924 0.1518 0.0000
vt 0.1326 0.2160 0.0000
vt 0.2469 0.2049 0.0000
vt 0.1567 0.2596 0.0000
vt 0.0200 0.0623 0.0000
vt 0.7702 0.6418 0.0000
vt 0.7709 0.5623 0.0000
vt 0.8986 0.5812 0.0000
vt 0.0440 0.1885 0.0000
vt 0.5084 0.7042 0.0000
vt 0.6249 0.7784 0.0000
vt 0.5087 0.8006 0.0000
vt 0.3643 0.3895 0.0000
vt 0.3301 0.4795 0.0000
vt 0.2527 0.4452 0.0000
vt 0.0644 0.4739 0.0000
vt 0.0200 0.3822 0.0000
vt 0.1381 0.4428 0.0000
vt 0.0830 0.6192 0.0000
vt 0.1476 0.7217 0.0000
vt 0.0200 0.7628 0.0000
vt 0.0287 0.5667 0.0000
vt 0.1436 0.5623 0.0000
vt 0.2456 0.6228 0.0000
vt 0.1979 0.6864 0.0000
vt 0.5974 0.1357 0.0000
vt 0.4777 0.2033 0.0000
vt 0.5378 0.0481 0.0000
vt 0.3690 0.2420 0.0000
vt 0.3590 0.1184 0.0000
vt 0.4490 0.0200 0.0000
vt 0.5839 0.2409 0.0000
vt 0.1989 0.5057 0.0000
vt 0.7575 0.3920 0.0000
vt 0.7620 0.3229 0.0000
vt 0.8329 0.4229 0.0000
vt 0.7973 0.3021 0.0000
vt 0.8795 0.3496 0.0000
vt 0.8893 0.3907 0.0000
vt 0.7465 0.4244 0.0000
vt 0.7013 0.5623 0.0000
vt 0.7277 0.6185 0.0000
vt 0.6525 0.6471 0.0000
vt 0.5897 0.5663 0.0000
vt 0.5566 0.6119 0.0000
vt 0.5084 0.9333 0.0000
vt 0.5104 0.8699 0.0000
vt 0.5730 0.9610 0.0000
vt 0.5945 0.8572 0.0000
vt 0.6139 0.8913 0.0000
vt 0.6043 0.9534 0.0000
vt 0.7756 0.8394 0.0000
vt 0.7983 0.8749 0.0000
vt 0.6815 0.8526 0.0000
vt 0.7971 0.9115 0.0000
vt 0.6953 0.9062 0.0000
vt 0.8550 0.9046 0.0000
vt 0.8622 0.8395 0.0000
vt 0.9338 0.8799 0.0000
vt 0.9307 0.8394 0.0000
# 203 texture coords

g Cylinder001
usemtl 08___Default
s off
f 1/1/1 2/2/1 3/3/1 4/4/1 
f 5/5/2 1/1/2 4/4/2 6/6/2 
f 7/7/3 8/8/3 5/9/3 6/10/3 
f 9/11/4 10/12/4 8/13/4 7/14/4 
f 11/15/5 12/16/5 10/12/5 9/11/5 
f 2/17/6 12/18/6 11/19/6 3/20/6 
f 13/21/7 14/22/7 2/17/7 1/23/7 
f 15/24/8 16/25/8 4/4/8 3/3/8 
f 5/5/9 17/26/9 13/27/9 1/1/9 
f 16/25/10 18/28/10 6/6/10 4/4/10 
f 18/29/11 19/30/11 7/7/11 6/10/11 
f 10/31/12 20/32/12 21/33/12 8/8/12 
f 7/7/13 19/30/13 22/34/13 9/35/13 
f 9/11/14 22/36/14 23/37/14 11/15/14 
f 14/22/15 24/38/15 12/18/15 2/17/15 
f 11/15/16 23/37/16 15/39/16 3/40/16 
f 25/41/17 26/42/17 14/22/17 13/21/17 
f 17/26/18 27/43/18 25/44/18 13/27/18 
f 21/45/19 28/46/19 27/43/19 17/26/19 
f 20/32/20 29/47/20 28/48/20 21/33/20 
f 30/49/21 29/50/21 20/51/21 24/52/21 
f 26/42/22 30/53/22 24/38/22 14/22/22 
f 17/26/23 5/5/23 31/54/23 32/55/23 
f 8/56/24 21/57/24 33/58/24 34/59/24 
f 5/9/25 8/8/25 34/60/25 31/61/25 
f 21/62/26 17/63/26 32/64/26 33/65/26 
f 32/55/27 31/54/27 35/66/27 36/67/27 
f 34/60/28 33/68/28 37/69/28 38/70/28 
f 31/61/29 34/60/29 38/70/29 35/71/29 
f 33/65/30 32/64/30 36/72/30 37/73/30 
f 36/67/31 35/66/31 39/74/31 40/75/31 
f 38/70/32 37/69/32 41/76/32 42/77/32 
f 35/78/33 38/79/33 42/80/33 39/81/33 
f 37/73/34 36/72/34 40/82/34 41/83/34 
f 20/32/35 10/31/35 43/84/35 44/85/35 
f 12/18/36 24/38/36 45/86/36 46/87/36 
f 10/88/37 12/89/37 46/90/37 43/91/37 
f 24/38/38 20/92/38 44/93/38 45/86/38 
f 44/94/39 43/95/39 47/96/39 48/97/39 
f 46/98/40 45/99/40 49/100/40 50/101/40 
f 43/102/41 46/103/41 50/104/41 47/105/41 
f 45/86/42 44/93/42 48/106/42 49/107/42 
f 51/108/43 52/109/43 53/110/43 
f 51/108/44 53/110/44 54/111/44 
f 51/112/45 54/113/45 55/114/45 
f 51/112/46 55/114/46 56/115/46 
f 51/116/47 56/117/47 52/118/47 
f 52/109/48 57/119/48 58/120/48 
f 53/121/49 58/122/49 59/123/49 
f 54/124/50 59/123/50 60/125/50 
f 55/126/51 60/127/51 61/128/51 
f 56/117/52 61/129/52 57/130/52 
f 58/120/53 53/110/53 52/109/53 
f 59/123/54 54/124/54 53/121/54 
f 60/127/55 55/126/55 54/131/55 
f 61/128/56 56/132/56 55/126/56 
f 57/130/57 52/118/57 56/117/57 
f 62/133/58 59/134/58 58/135/58 
f 62/133/59 60/127/59 59/134/59 
f 62/133/60 61/128/60 60/127/60 
f 62/133/61 57/136/61 61/128/61 
f 62/133/62 58/135/62 57/136/62 
f 63/137/63 64/138/63 65/139/63 
f 64/140/64 66/141/64 67/142/64 
f 64/138/65 67/143/65 65/139/65 
f 65/139/66 67/143/66 68/144/66 
f 63/137/67 65/139/67 69/145/67 
f 65/139/68 68/144/68 70/146/68 
f 65/139/69 70/146/69 69/145/69 
f 69/145/70 70/146/70 71/147/70 
f 63/137/71 69/145/71 72/148/71 
f 69/149/72 71/150/72 73/151/72 
f 69/145/73 73/152/73 72/148/73 
f 72/153/74 73/154/74 74/155/74 
f 63/137/75 72/148/75 64/138/75 
f 72/156/76 74/157/76 75/158/76 
f 72/156/77 75/158/77 64/140/77 
f 64/140/78 75/158/78 66/141/78 
f 76/159/79 77/160/79 78/161/79 
f 77/162/80 68/163/80 67/164/80 
f 77/160/81 67/142/81 78/161/81 
f 78/161/82 67/142/82 66/141/82 
f 76/165/83 79/166/83 77/162/83 
f 79/166/84 71/167/84 70/168/84 
f 79/166/85 70/168/85 77/162/85 
f 77/162/86 70/168/86 68/163/86 
f 76/169/87 80/170/87 79/171/87 
f 80/170/88 74/172/88 73/173/88 
f 80/170/89 73/173/89 79/171/89 
f 79/171/90 73/173/90 71/174/90 
f 76/169/91 78/175/91 80/170/91 
f 78/161/92 66/141/92 75/158/92 
f 78/161/93 75/158/93 80/176/93 
f 80/176/94 75/158/94 74/157/94 
f 81/177/95 82/178/95 83/179/95 
f 82/178/96 84/180/96 85/181/96 
f 82/178/97 85/181/97 83/179/97 
f 83/179/98 85/181/98 86/182/98 
f 81/177/99 83/179/99 87/183/99 
f 83/184/100 86/185/100 88/186/100 
f 83/184/101 88/186/101 87/187/101 
f 87/187/102 88/186/102 89/188/102 
f 81/189/103 87/190/103 82/191/103 
f 87/190/104 89/192/104 90/193/104 
f 87/190/105 90/193/105 82/191/105 
f 82/191/106 90/193/106 84/194/106 
f 84/195/107 90/196/107 85/197/107 
f 90/196/108 89/198/108 88/199/108 
f 90/200/109 88/201/109 85/202/109 
f 85/202/110 88/201/110 86/203/110 
# 42 polygons - 68 triangles

